<svg fill="#ff0000" height="200px" width="200px" version="1.1" id="Layer_1" xmlns="http://www.w3.org/2000/svg" xmlns:xlink="http://www.w3.org/1999/xlink" viewBox="0 0 466.008 466.008" xml:space="preserve" transform="matrix(-1, 0, 0, 1, 0, 0)" stroke="#ff0000"><g id="SVGRepo_bgCarrier" stroke-width="0"></g><g id="SVGRepo_tracerCarrier" stroke-linecap="round" stroke-linejoin="round"></g><g id="SVGRepo_iconCarrier"> <g> <g> <path d="M233.004,0C104.224,0,0,104.212,0,233.004c0,128.781,104.212,233.004,233.004,233.004 c128.782,0,233.004-104.212,233.004-233.004C466.008,104.222,361.796,0,233.004,0z M244.484,242.659l-63.512,75.511 c-5.333,6.34-14.797,7.156-21.135,1.824c-6.34-5.333-7.157-14.795-1.824-21.135l59.991-71.325V58.028c0-8.284,6.716-15,15-15 s15,6.716,15,15v174.976h0C248.004,236.536,246.757,239.956,244.484,242.659z"></path> </g> </g> </g></svg>